<svg xmlns="http://www.w3.org/2000/svg">
    <symbol id="social-facebook" viewBox="0 0 24 24">
        <path d="M13,10h3v3h-3v7h-3v-7H7v-3h3V8.745c0-1.189,0.374-2.691,1.118-3.512C11.862,4.41,12.791,4,13.904,4H16v3h-2.1   C13.402,7,13,7.402,13,7.899V10z"/>
    </symbol>
    <symbol id="social-youtube" viewBox="0 0 30 30">
        <path d="M29.699,8.539c0,0-0.293-2.067-1.191-2.979c-1.141-1.194-2.42-1.2-3.006-1.271C21.303,3.986,15,3.986,15,3.986    s-6.304,0-10.502,0.304C3.912,4.36,2.633,4.366,1.492,5.561C0.592,6.472,0.3,8.539,0.3,8.539S0,10.559,0,12.986v3.001    c0,2.427,0.3,4.539,0.3,4.539s0.292,2.066,1.192,2.977c1.141,1.195,2.64,1.158,3.308,1.283c2.4,0.23,10.2,0.201,10.2,0.201    s6.303,0.09,10.502-0.213c0.586-0.07,1.865-0.076,3.006-1.271c0.898-0.91,1.191-2.977,1.191-2.977S30,18.415,30,15.988v-3.001    C30,10.559,29.699,8.539,29.699,8.539z M11,18.493v-8l8,4L11,18.493z"/>
    </symbol>
    <symbol id="social-twitter" viewBox="0 0 30 30">
        <path d="M30,6.708C28.895,7.199,27.244,7.851,26,8c1.273-0.762,2.539-2.561,3-4c-0.971,0.577-2.087,1.355-3.227,1.773    L25,5c-1.121-1.197-2.23-2-4-2c-3.398,0-6,2.602-6,6c0,0.399,0.047,0.7,0.11,0.956L15,10C9,10,5.034,8.724,2,5    C1.469,5.908,1,6.872,1,8c0,2.136,1.348,3.894,3,5c-1.009-0.033-2.171-0.542-3-1c0,2.98,4.186,6.432,7,7c-1,1-4.623,0.074-5,0    c0.784,2.447,3.309,3.949,6,4c-2.105,1.648-4.647,2.51-7.531,2.51c-0.498,0-0.987-0.029-1.469-0.084C2.723,27.17,6.523,28,10,28    c11.322,0,17-8.867,17-17c0-0.268,0.008-0.736,0-1C28.201,9.132,29.172,7.942,30,6.708z" id="Brid"/>
    </symbol>
    <symbol id="social-instagram" viewBox="0 0 50 50">
        <path d="M35.1,0H14.9A14.91,14.91,0,0,0,0,14.9V35.1A14.91,14.91,0,0,0,14.9,50H35.1A14.91,14.91,0,0,0,50,35.1V14.9A14.91,14.91,0,0,0,35.1,0ZM45,35.1A9.87,9.87,0,0,1,35.1,45H14.9A9.87,9.87,0,0,1,5,35.1V14.9A9.87,9.87,0,0,1,14.9,5H35.1A9.87,9.87,0,0,1,45,14.9V35.1Z"/>
        <path d="M25,12.07A12.93,12.93,0,1,0,37.93,25,12.95,12.95,0,0,0,25,12.07ZM25,32.9A7.9,7.9,0,1,1,32.9,25,7.9,7.9,0,0,1,25,32.9Z"/>
        <circle cx="37.96" cy="12.17" r="3.1"/>
    </symbol>
    <symbol id="social-patreon" viewBox="0 0 40 40">
        <path d="M23.75,9a8.25,8.25,0,1,1-8.26,8.26A8.26,8.26,0,0,1,23.75,9M9,31h4V9H9Z"/>
    </symbol>
</svg>
