<svg width="260" height="39" viewBox="0 0 260 39" fill="none" xmlns="http://www.w3.org/2000/svg">
<circle cx="15.5391" cy="19.4609" r="15.5391" transform="rotate(-90 15.5391 19.4609)" fill="#F97316"/>
<circle cx="18.9172" cy="19.4609" r="15.5391" transform="rotate(-90 18.9172 19.4609)" fill="#1E1E1E"/>
<ellipse cx="19.0909" cy="19.4609" rx="10.2114" ry="10.2114" transform="rotate(-90 19.0909 19.4609)" fill="#F97316"/>
<circle cx="13.9594" cy="19.4452" r="6.78027" transform="rotate(-90 13.9594 19.4452)" fill="#1E1E1E"/>
<path d="M36.0227 31V7.72727H45.2045C46.9697 7.72727 48.4735 8.06439 49.7159 8.73864C50.9583 9.4053 51.9053 10.3333 52.5568 11.5227C53.2159 12.7045 53.5455 14.0682 53.5455 15.6136C53.5455 17.1591 53.2121 18.5227 52.5455 19.7045C51.8788 20.8864 50.9129 21.8068 49.6477 22.4659C48.3902 23.125 46.8674 23.4545 45.0795 23.4545H39.2273V19.5114H44.2841C45.2311 19.5114 46.0114 19.3485 46.625 19.0227C47.2462 18.6894 47.7083 18.2311 48.0114 17.6477C48.322 17.0568 48.4773 16.3788 48.4773 15.6136C48.4773 14.8409 48.322 14.1667 48.0114 13.5909C47.7083 13.0076 47.2462 12.5568 46.625 12.2386C46.0038 11.9129 45.2159 11.75 44.2614 11.75H40.9432V31H36.0227ZM61.6619 7.72727V31H56.7415V7.72727H61.6619ZM85.1761 7.72727V31H80.9261L70.8011 16.3523H70.6307V31H65.7102V7.72727H70.0284L80.0739 22.3636H80.2784V7.72727H85.1761ZM94.1619 7.72727V31H89.2415V7.72727H94.1619ZM119.597 19.3636C119.597 21.9015 119.116 24.0606 118.153 25.8409C117.199 27.6212 115.896 28.9811 114.244 29.9205C112.6 30.8523 110.752 31.3182 108.699 31.3182C106.631 31.3182 104.775 30.8485 103.131 29.9091C101.487 28.9697 100.188 27.6098 99.233 25.8295C98.2784 24.0492 97.8011 21.8939 97.8011 19.3636C97.8011 16.8258 98.2784 14.6667 99.233 12.8864C100.188 11.1061 101.487 9.75 103.131 8.81818C104.775 7.87879 106.631 7.40909 108.699 7.40909C110.752 7.40909 112.6 7.87879 114.244 8.81818C115.896 9.75 117.199 11.1061 118.153 12.8864C119.116 14.6667 119.597 16.8258 119.597 19.3636ZM114.608 19.3636C114.608 17.7197 114.362 16.3333 113.869 15.2045C113.384 14.0758 112.699 13.2197 111.812 12.6364C110.926 12.053 109.888 11.7614 108.699 11.7614C107.509 11.7614 106.472 12.053 105.585 12.6364C104.699 13.2197 104.009 14.0758 103.517 15.2045C103.032 16.3333 102.79 17.7197 102.79 19.3636C102.79 21.0076 103.032 22.3939 103.517 23.5227C104.009 24.6515 104.699 25.5076 105.585 26.0909C106.472 26.6742 107.509 26.9659 108.699 26.9659C109.888 26.9659 110.926 26.6742 111.812 26.0909C112.699 25.5076 113.384 24.6515 113.869 23.5227C114.362 22.3939 114.608 21.0076 114.608 19.3636ZM142.707 7.72727V31H138.457L128.332 16.3523H128.162V31H123.241V7.72727H127.56L137.605 22.3636H137.81V7.72727H142.707Z" fill="white"/>
<path d="M147.023 31V7.72727H156.205C157.962 7.72727 159.462 8.04167 160.705 8.67045C161.955 9.29167 162.905 10.1742 163.557 11.3182C164.216 12.4545 164.545 13.7917 164.545 15.3295C164.545 16.875 164.212 18.2045 163.545 19.3182C162.879 20.4242 161.913 21.2727 160.648 21.8636C159.39 22.4545 157.867 22.75 156.08 22.75H149.932V18.7955H155.284C156.223 18.7955 157.004 18.6667 157.625 18.4091C158.246 18.1515 158.708 17.7652 159.011 17.25C159.322 16.7348 159.477 16.0947 159.477 15.3295C159.477 14.5568 159.322 13.9053 159.011 13.375C158.708 12.8447 158.242 12.4432 157.614 12.1705C156.992 11.8902 156.208 11.75 155.261 11.75H151.943V31H147.023ZM159.591 20.4091L165.375 31H159.943L154.284 20.4091H159.591ZM172.034 31H166.761L174.795 7.72727H181.136L189.159 31H183.886L178.057 13.0455H177.875L172.034 31ZM171.705 21.8523H184.159V25.6932H171.705V21.8523ZM188.23 11.7841V7.72727H207.344V11.7841H200.219V31H195.355V11.7841H188.23ZM210.491 31V7.72727H226.173V11.7841H215.412V17.3295H225.366V21.3864H215.412V26.9432H226.219V31H210.491Z" fill="#F97316"/>
<path d="M235.943 7.72727V31H231.023V7.72727H235.943ZM239.105 11.7841V7.72727H258.219V11.7841H251.094V31H246.23V11.7841H239.105Z" fill="white"/>
</svg>
