<svg width="203" height="51" viewBox="0 0 203 51" fill="none" xmlns="http://www.w3.org/2000/svg">
<path d="M28.9695 34.0714L0 51L28.9695 29.3571L35.0573 33.4286V24.4286L43.874 19.5H35.8969L35.0573 10.0714C33.5878 12.7143 30.5229 18 30.0191 18H18.0534L25.1908 24.4286L17.2137 29.3571L20.5725 24.4286L11.3359 14.7857L28.9695 14.7857L38.416 0L39.0458 16.0714H55L39.0458 26.7857V42.2143L28.9695 34.0714Z" fill="#484644"/>
<path d="M129.949 26.3477H135.996C136.84 26.3477 137.609 26.4336 138.305 26.6055C139 26.7773 139.598 27.0352 140.098 27.3789C140.598 27.7148 140.98 28.1367 141.246 28.6445C141.52 29.1523 141.656 29.7422 141.656 30.4141C141.656 31.2734 141.523 31.9727 141.258 32.5117C141 33.0508 140.645 33.4844 140.191 33.8125C139.738 34.1406 139.219 34.4258 138.633 34.668L137.285 35.4766H132.328L132.305 32.4297H135.996C136.371 32.4297 136.684 32.375 136.934 32.2656C137.191 32.1484 137.383 31.9766 137.508 31.75C137.633 31.5156 137.695 31.2266 137.695 30.8828C137.695 30.5547 137.625 30.2812 137.484 30.0625C137.344 29.8438 137.145 29.6797 136.887 29.5703C136.637 29.4531 136.34 29.3945 135.996 29.3945H133.91V40H129.949V26.3477ZM137.848 40L134.695 34L138.902 33.9648L142.113 39.8477V40H137.848ZM149.695 30.6719L146.543 40H142.559L147.855 26.3477H150.598L149.695 30.6719ZM153.07 40L149.801 30.6953L148.875 26.3477H151.664L157.043 40H153.07ZM153.117 34.9141V37.6094H145.84V34.9141H153.117ZM164.695 26.3477V40H160.711V26.3477H164.695ZM169.031 26.3477V29.3945H156.504V26.3477H169.031ZM180.656 36.9648V40H172.781V36.9648H180.656ZM174.293 26.3477V40H170.332V26.3477H174.293ZM179.66 31.4219V34.4688H172.781V31.4219H179.66ZM180.715 26.3477V29.3945H172.781V26.3477H180.715Z" fill="#F97316"/>
<path d="M188.18 26.3477V40H184.219V26.3477H188.18ZM197.93 26.3477V40H193.945V26.3477H197.93ZM202.266 26.3477V29.3945H189.738V26.3477H202.266Z" fill="white"/>
<path d="M56.6758 32.9453V33.4141C56.6758 34.4531 56.5156 35.3906 56.1953 36.2266C55.875 37.0625 55.4219 37.7773 54.8359 38.3711C54.25 38.957 53.5586 39.4062 52.7617 39.7188C51.9648 40.0312 51.0898 40.1875 50.1367 40.1875C49.168 40.1875 48.2812 40.0312 47.4766 39.7188C46.6797 39.4062 45.9883 38.957 45.4023 38.3711C44.8164 37.7773 44.3633 37.0625 44.043 36.2266C43.7227 35.3906 43.5625 34.4531 43.5625 33.4141V32.9453C43.5625 31.8984 43.7188 30.9609 44.0312 30.1328C44.3516 29.2969 44.8008 28.582 45.3789 27.9883C45.9648 27.3945 46.6562 26.9414 47.4531 26.6289C48.2578 26.3164 49.1445 26.1602 50.1133 26.1602C51.0664 26.1602 51.9414 26.3164 52.7383 26.6289C53.5352 26.9414 54.2266 27.3945 54.8125 27.9883C55.4062 28.582 55.8633 29.2969 56.1836 30.1328C56.5117 30.9609 56.6758 31.8984 56.6758 32.9453ZM52.6914 33.4141V32.9336C52.6914 32.332 52.6328 31.8008 52.5156 31.3398C52.3984 30.8711 52.2266 30.4766 52 30.1562C51.7812 29.8359 51.5117 29.5938 51.1914 29.4297C50.8789 29.2578 50.5195 29.1719 50.1133 29.1719C49.6836 29.1719 49.3047 29.2578 48.9766 29.4297C48.6562 29.5938 48.3906 29.8359 48.1797 30.1562C47.9688 30.4766 47.8086 30.8711 47.6992 31.3398C47.5977 31.8008 47.5469 32.332 47.5469 32.9336V33.4141C47.5469 34 47.5977 34.5273 47.6992 34.9961C47.8086 35.457 47.9727 35.8516 48.1914 36.1797C48.4102 36.5078 48.6797 36.7578 49 36.9297C49.3281 37.1016 49.707 37.1875 50.1367 37.1875C50.5352 37.1875 50.8906 37.1016 51.2031 36.9297C51.5234 36.7578 51.793 36.5078 52.0117 36.1797C52.2305 35.8516 52.3984 35.457 52.5156 34.9961C52.6328 34.5273 52.6914 34 52.6914 33.4141ZM64.1641 35.7227H60.5781V32.6758H64.1641C64.5859 32.6758 64.9375 32.6133 65.2188 32.4883C65.5 32.3633 65.707 32.1914 65.8398 31.9727C65.9805 31.7539 66.0508 31.5117 66.0508 31.2461C66.0508 30.9102 65.9805 30.6055 65.8398 30.332C65.707 30.0508 65.5 29.8242 65.2188 29.6523C64.9375 29.4805 64.5859 29.3945 64.1641 29.3945H62.1602V40H58.1992V26.3477H64.1641C65.3594 26.3477 66.3906 26.5586 67.2578 26.9805C68.1328 27.4023 68.8047 27.9805 69.2734 28.7148C69.75 29.4492 69.9883 30.2852 69.9883 31.2227C69.9883 31.8789 69.8516 32.4844 69.5781 33.0391C69.3125 33.5859 68.9258 34.0625 68.418 34.4688C67.9102 34.8672 67.2969 35.1758 66.5781 35.3945C65.8672 35.6133 65.0625 35.7227 64.1641 35.7227ZM75.9766 26.3477V40H72.0156V26.3477H75.9766ZM90.6719 26.3477V40H86.7109L82.1055 32.0547V40H78.1445V26.3477H82.1055L86.7109 34.293V26.3477H90.6719ZM96.8125 26.3477V40H92.8516V26.3477H96.8125ZM111.707 32.9453V33.4141C111.707 34.4531 111.547 35.3906 111.227 36.2266C110.906 37.0625 110.453 37.7773 109.867 38.3711C109.281 38.957 108.59 39.4062 107.793 39.7188C106.996 40.0312 106.121 40.1875 105.168 40.1875C104.199 40.1875 103.312 40.0312 102.508 39.7188C101.711 39.4062 101.02 38.957 100.434 38.3711C99.8477 37.7773 99.3945 37.0625 99.0742 36.2266C98.7539 35.3906 98.5938 34.4531 98.5938 33.4141V32.9453C98.5938 31.8984 98.75 30.9609 99.0625 30.1328C99.3828 29.2969 99.832 28.582 100.41 27.9883C100.996 27.3945 101.688 26.9414 102.484 26.6289C103.289 26.3164 104.176 26.1602 105.145 26.1602C106.098 26.1602 106.973 26.3164 107.77 26.6289C108.566 26.9414 109.258 27.3945 109.844 27.9883C110.438 28.582 110.895 29.2969 111.215 30.1328C111.543 30.9609 111.707 31.8984 111.707 32.9453ZM107.723 33.4141V32.9336C107.723 32.332 107.664 31.8008 107.547 31.3398C107.43 30.8711 107.258 30.4766 107.031 30.1562C106.812 29.8359 106.543 29.5938 106.223 29.4297C105.91 29.2578 105.551 29.1719 105.145 29.1719C104.715 29.1719 104.336 29.2578 104.008 29.4297C103.688 29.5938 103.422 29.8359 103.211 30.1562C103 30.4766 102.84 30.8711 102.73 31.3398C102.629 31.8008 102.578 32.332 102.578 32.9336V33.4141C102.578 34 102.629 34.5273 102.73 34.9961C102.84 35.457 103.004 35.8516 103.223 36.1797C103.441 36.5078 103.711 36.7578 104.031 36.9297C104.359 37.1016 104.738 37.1875 105.168 37.1875C105.566 37.1875 105.922 37.1016 106.234 36.9297C106.555 36.7578 106.824 36.5078 107.043 36.1797C107.262 35.8516 107.43 35.457 107.547 34.9961C107.664 34.5273 107.723 34 107.723 33.4141ZM125.758 26.3477V40H121.797L117.191 32.0547V40H113.23V26.3477H117.191L121.797 34.293V26.3477H125.758Z" fill="white"/>
</svg>
