<svg width="145" height="43" viewBox="0 0 145 43" fill="none" xmlns="http://www.w3.org/2000/svg">
<circle cx="16.4217" cy="21.5391" r="15.5391" transform="rotate(-90 16.4217 21.5391)" fill="#F97316"/>
<circle cx="19.7997" cy="21.5391" r="15.5391" transform="rotate(-90 19.7997 21.5391)" fill="#1E1E1E"/>
<ellipse cx="19.9735" cy="21.5391" rx="10.2114" ry="10.2114" transform="rotate(-90 19.9735 21.5391)" fill="#F97316"/>
<circle cx="14.842" cy="21.5235" r="6.78027" transform="rotate(-90 14.842 21.5235)" fill="#1E1E1E"/>
<path d="M37.7617 29H35.0664C34.9883 29 34.9492 28.9609 34.9492 28.8828L34.9961 12.3945C34.9961 12.332 35.0273 12.3008 35.0898 12.3008H39.707C41.1758 12.3008 42.3359 12.75 43.1875 13.6484C44.0469 14.5391 44.4766 15.7539 44.4766 17.293C44.4766 18.418 44.2539 19.3984 43.8086 20.2344C43.3555 21.0625 42.7695 21.7031 42.0508 22.1562C41.332 22.6094 40.5508 22.8359 39.707 22.8359H37.8789V28.8828C37.8789 28.9609 37.8398 29 37.7617 29ZM39.707 15.1484L37.8789 15.1719V19.9297H39.707C40.2148 19.9297 40.6562 19.6875 41.0312 19.2031C41.4062 18.7109 41.5938 18.0742 41.5938 17.293C41.5938 16.668 41.4258 16.1562 41.0898 15.7578C40.7539 15.3516 40.293 15.1484 39.707 15.1484ZM48.9414 29H46.2227C46.1445 29 46.1055 28.9609 46.1055 28.8828L46.1289 12.3945C46.1289 12.332 46.1602 12.3008 46.2227 12.3008H48.918C48.9805 12.3008 49.0117 12.332 49.0117 12.3945L49.0352 28.8828C49.0352 28.9609 49.0039 29 48.9414 29ZM53.7578 29H51.3555C51.2305 29 51.168 28.9453 51.168 28.8359L51.1445 12.4883C51.1445 12.3633 51.207 12.3008 51.332 12.3008H53.5L57.5547 21.7578L57.4375 12.4883C57.4375 12.3633 57.5078 12.3008 57.6484 12.3008H60.0273C60.1211 12.3008 60.168 12.3633 60.168 12.4883L60.1914 28.8594C60.1914 28.9531 60.1523 29 60.0742 29H57.9648L53.8047 20.1641L53.9805 28.8125C53.9805 28.9375 53.9062 29 53.7578 29ZM65.1133 29H62.3945C62.3164 29 62.2773 28.9609 62.2773 28.8828L62.3008 12.3945C62.3008 12.332 62.332 12.3008 62.3945 12.3008H65.0898C65.1523 12.3008 65.1836 12.332 65.1836 12.3945L65.207 28.8828C65.207 28.9609 65.1758 29 65.1133 29ZM71.7578 29.2344C70.9062 29.2344 70.1211 29.0156 69.4023 28.5781C68.6914 28.1406 68.1172 27.5586 67.6797 26.832C67.25 26.0977 67.0352 25.293 67.0352 24.418L67.0586 16.8125C67.0586 15.9219 67.2734 15.1211 67.7031 14.4102C68.125 13.6914 68.6953 13.1172 69.4141 12.6875C70.1328 12.25 70.9141 12.0312 71.7578 12.0312C72.6328 12.0312 73.418 12.2461 74.1133 12.6758C74.8164 13.1055 75.3789 13.6836 75.8008 14.4102C76.2305 15.1289 76.4453 15.9297 76.4453 16.8125L76.4688 24.418C76.4688 25.293 76.2578 26.0938 75.8359 26.8203C75.4062 27.5547 74.8359 28.1406 74.125 28.5781C73.4141 29.0156 72.625 29.2344 71.7578 29.2344ZM71.7578 26.3398C72.2422 26.3398 72.6641 26.1445 73.0234 25.7539C73.3828 25.3555 73.5625 24.9102 73.5625 24.418L73.5391 16.8125C73.5391 16.2812 73.3711 15.832 73.0352 15.4648C72.6992 15.0977 72.2734 14.9141 71.7578 14.9141C71.2656 14.9141 70.8438 15.0938 70.4922 15.4531C70.1406 15.8125 69.9648 16.2656 69.9648 16.8125V24.418C69.9648 24.9414 70.1406 25.3945 70.4922 25.7773C70.8438 26.1523 71.2656 26.3398 71.7578 26.3398ZM80.8984 29H78.4961C78.3711 29 78.3086 28.9453 78.3086 28.8359L78.2852 12.4883C78.2852 12.3633 78.3477 12.3008 78.4727 12.3008H80.6406L84.6953 21.7578L84.5781 12.4883C84.5781 12.3633 84.6484 12.3008 84.7891 12.3008H87.168C87.2617 12.3008 87.3086 12.3633 87.3086 12.4883L87.332 28.8594C87.332 28.9531 87.293 29 87.2148 29H85.1055L80.9453 20.1641L81.1211 28.8125C81.1211 28.9375 81.0469 29 80.8984 29Z" fill="white"/>
<path d="M92.7617 29H90.043C89.9805 29 89.9492 28.9609 89.9492 28.8828L89.9961 12.3945C89.9961 12.332 90.0273 12.3008 90.0898 12.3008H94.9414C95.8086 12.3008 96.6055 12.5117 97.332 12.9336C98.0586 13.3555 98.6367 13.9219 99.0664 14.6328C99.5039 15.3438 99.7227 16.1484 99.7227 17.0469C99.7227 17.6328 99.6328 18.1641 99.4531 18.6406C99.2734 19.1172 99.0625 19.5195 98.8203 19.8477C98.5859 20.1758 98.3711 20.418 98.1758 20.5742C99.043 21.5352 99.4766 22.6641 99.4766 23.9609L99.5 28.8828C99.5 28.9609 99.4609 29 99.3828 29H96.6641C96.6016 29 96.5703 28.9766 96.5703 28.9297V23.9609C96.5703 23.3828 96.3672 22.8828 95.9609 22.4609C95.5547 22.0391 95.0547 21.8281 94.4609 21.8281H92.8789L92.8555 28.8828C92.8555 28.9609 92.8242 29 92.7617 29ZM94.9414 15.1719H92.8789V18.9453H94.9414C95.4336 18.9453 95.8711 18.7617 96.2539 18.3945C96.6445 18.0273 96.8398 17.5781 96.8398 17.0469C96.8398 16.5391 96.6523 16.1016 96.2773 15.7344C95.9023 15.3594 95.457 15.1719 94.9414 15.1719ZM100.227 28.8828L103.203 12.3945C103.219 12.332 103.258 12.3008 103.32 12.3008H106.801C106.863 12.3008 106.902 12.332 106.918 12.3945L109.777 28.8828C109.785 28.9609 109.754 29 109.684 29H107.023C106.945 29 106.902 28.9609 106.895 28.8828L106.637 27.125H103.367L103.109 28.8828C103.102 28.9609 103.062 29 102.992 29H100.32C100.258 29 100.227 28.9609 100.227 28.8828ZM104.926 17.8203L103.848 24.5586H106.156L105.172 17.8203L105.031 16.9297L104.926 17.8203ZM116.398 29H113.691C113.621 29 113.586 28.9609 113.586 28.8828V15.1953H110.469C110.391 15.1953 110.352 15.1562 110.352 15.0781L110.375 12.3945C110.375 12.332 110.406 12.3008 110.469 12.3008H119.586C119.672 12.3008 119.715 12.332 119.715 12.3945V15.0781C119.715 15.1562 119.684 15.1953 119.621 15.1953H116.469L116.492 28.8828C116.492 28.9609 116.461 29 116.398 29ZM128.738 29H120.98C120.918 29 120.887 28.9609 120.887 28.8828L120.91 12.3945C120.91 12.332 120.941 12.3008 121.004 12.3008H128.715C128.777 12.3008 128.809 12.3398 128.809 12.418V15.1016C128.809 15.1641 128.777 15.1953 128.715 15.1953H123.793V18.9453H128.715C128.777 18.9453 128.809 18.9766 128.809 19.0391L128.832 21.7578C128.832 21.8203 128.801 21.8516 128.738 21.8516H123.793V26.0469H128.738C128.801 26.0469 128.832 26.0859 128.832 26.1641V28.9062C128.832 28.9688 128.801 29 128.738 29Z" fill="#F97316"/>
<path d="M133.785 29H131.066C130.988 29 130.949 28.9609 130.949 28.8828L130.973 12.3945C130.973 12.332 131.004 12.3008 131.066 12.3008H133.762C133.824 12.3008 133.855 12.332 133.855 12.3945L133.879 28.8828C133.879 28.9609 133.848 29 133.785 29ZM141.109 29H138.402C138.332 29 138.297 28.9609 138.297 28.8828V15.1953H135.18C135.102 15.1953 135.062 15.1562 135.062 15.0781L135.086 12.3945C135.086 12.332 135.117 12.3008 135.18 12.3008H144.297C144.383 12.3008 144.426 12.332 144.426 12.3945V15.0781C144.426 15.1562 144.395 15.1953 144.332 15.1953H141.18L141.203 28.8828C141.203 28.9609 141.172 29 141.109 29Z" fill="white"/>
</svg>
